<mxfile host="app.diagrams.net" modified="2023-05-07T02:21:51.535Z" agent="Mozilla/5.0 (Windows NT 10.0; Win64; x64) AppleWebKit/537.36 (KHTML, like Gecko) Chrome/112.0.0.0 Safari/537.36" version="21.2.9" etag="YW7g7FNBrDACUVaIuKuT" type="github">
  <diagram name="Page-1" id="HjAe-cEzDwWQ3BzL_Kof">
    <mxGraphModel>
      <root>
        <mxCell id="0" />
        <mxCell id="1" parent="0" />
      </root>
    </mxGraphModel>
  </diagram>
</mxfile>
